RBDS018runT45_grf
version=1
nRows=18
nColumns=19
inDegrees=no
endheader
time	ground_force_r_vx	ground_force_r_vy	ground_force_r_vz	ground_force_r_px	ground_force_r_py	ground_force_r_pz	ground_force_r_mx	ground_force_r_my	ground_force_r_mz	ground_force_l_vx	ground_force_l_vy	ground_force_l_vz	ground_force_l_px	ground_force_l_py	ground_force_l_pz	ground_force_l_mx	ground_force_l_my	ground_force_l_mz
     14.99900000	     79.14973107	   1750.12141521	     -1.22019239	      2.14139705	      0.00000000	      0.98891194	      0.00000000	      4.28792519	      0.00000000	      0.00000000	      0.00000000	      0.00000000	      0.00000000	      0.00000000	      0.00000000	      0.00000000	      0.00000000	      0.00000000
     15.00000000	     87.64789218	   1733.86388104	     -0.74442599	      2.13703369	      0.00000000	      0.98896133	      0.00000000	      3.99016919	      0.00000000	      0.00000000	      0.00000000	      0.00000000	      0.00000000	      0.00000000	      0.00000000	      0.00000000	      0.00000000	      0.00000000
     15.00100000	     95.72289161	   1716.45081437	      0.05608604	      2.13266662	      0.00000000	      0.98896937	      0.00000000	      3.71904589	      0.00000000	      0.00000000	      0.00000000	      0.00000000	      0.00000000	      0.00000000	      0.00000000	      0.00000000	      0.00000000	      0.00000000
     15.00200000	    103.79789103	   1699.03774770	      0.85659807	      2.12829956	      0.00000000	      0.98897741	      0.00000000	      3.44792259	      0.00000000	      0.00000000	      0.00000000	      0.00000000	      0.00000000	      0.00000000	      0.00000000	      0.00000000	      0.00000000	      0.00000000
     15.00300000	    111.87289045	   1681.62468103	      1.65711009	      2.12393249	      0.00000000	      0.98898545	      0.00000000	      3.17679929	      0.00000000	      0.00000000	      0.00000000	      0.00000000	      0.00000000	      0.00000000	      0.00000000	      0.00000000	      0.00000000	      0.00000000
     15.00400000	    119.60273827	   1663.44010622	      2.65470030	      2.11957746	      0.00000000	      0.98896570	      0.00000000	      2.92509915	      0.00000000	      0.00000000	      0.00000000	      0.00000000	      0.00000000	      0.00000000	      0.00000000	      0.00000000	      0.00000000	      0.00000000
     15.00500000	    127.16001029	   1644.86977734	      3.75082960	      2.11522844	      0.00000000	      0.98893206	      0.00000000	      2.68311060	      0.00000000	      0.00000000	      0.00000000	      0.00000000	      0.00000000	      0.00000000	      0.00000000	      0.00000000	      0.00000000	      0.00000000
     15.00600000	    134.71728230	   1626.29944846	      4.84695889	      2.11087943	      0.00000000	      0.98889842	      0.00000000	      2.44112205	      0.00000000	      0.00000000	      0.00000000	      0.00000000	      0.00000000	      0.00000000	      0.00000000	      0.00000000	      0.00000000	      0.00000000
     15.00700000	    142.07254754	   1607.34828133	      6.02773442	      2.10654490	      0.00000000	      0.98885127	      0.00000000	      2.20918993	      0.00000000	      0.00000000	      0.00000000	      0.00000000	      0.00000000	      0.00000000	      0.00000000	      0.00000000	      0.00000000	      0.00000000
     15.00800000	    149.02379921	   1587.63543769	      7.37780243	      2.10223935	      0.00000000	      0.98877713	      0.00000000	      1.99737067	      0.00000000	      0.00000000	      0.00000000	      0.00000000	      0.00000000	      0.00000000	      0.00000000	      0.00000000	      0.00000000	      0.00000000
     15.00900000	    155.97505088	   1567.92259406	      8.72787043	      2.09793380	      0.00000000	      0.98870299	      0.00000000	      1.78555141	      0.00000000	      0.00000000	      0.00000000	      0.00000000	      0.00000000	      0.00000000	      0.00000000	      0.00000000	      0.00000000	      0.00000000
     15.01000000	    162.92630255	   1548.20975043	     10.07793844	      2.09362825	      0.00000000	      0.98862885	     -0.00000000	      1.57373215	      0.00000000	      0.00000000	      0.00000000	      0.00000000	      0.00000000	      0.00000000	      0.00000000	      0.00000000	      0.00000000	      0.00000000
     15.01100000	    169.19143526	   1527.38966613	     11.62981683	      2.08939490	      0.00000000	      0.98851679	     -0.00000000	      1.39176363	      0.00000000	      0.00000000	      0.00000000	      0.00000000	      0.00000000	      0.00000000	      0.00000000	      0.00000000	      0.00000000	      0.00000000
     15.01200000	    175.45656797	   1506.56958184	     13.18169522	      2.08516155	      0.00000000	      0.98840473	     -0.00000000	      1.20979511	      0.00000000	      0.00000000	      0.00000000	      0.00000000	      0.00000000	      0.00000000	      0.00000000	      0.00000000	      0.00000000	      0.00000000
     15.01300000	    181.72170068	   1485.74949754	     14.73357361	      2.08092820	      0.00000000	      0.98829267	     -0.00000000	      1.02782660	      0.00000000	      0.00000000	      0.00000000	      0.00000000	      0.00000000	      0.00000000	      0.00000000	      0.00000000	      0.00000000	      0.00000000
     15.01400000	    187.48279256	   1464.23046130	     16.37992859	      2.07676402	      0.00000000	      0.98815786	     -0.00000000	      0.86475154	      0.00000000	      0.00000000	      0.00000000	      0.00000000	      0.00000000	      0.00000000	      0.00000000	      0.00000000	      0.00000000	      0.00000000
     15.01500000	    192.99186403	   1442.36194908	     18.07352186	      2.07263441	      0.00000000	      0.98801168	     -0.00000000	      0.71112322	      0.00000000	      0.00000000	      0.00000000	      0.00000000	      0.00000000	      0.00000000	      0.00000000	      0.00000000	      0.00000000	      0.00000000
     15.01600000	    198.50093550	   1420.49343687	     19.76711513	      2.06850481	      0.00000000	      0.98786550	     -0.00000000	      0.55749490	      0.00000000	      0.00000000	      0.00000000	      0.00000000	      0.00000000	      0.00000000	      0.00000000	      0.00000000	      0.00000000	      0.00000000
